<svg xmlns="http://www.w3.org/2000/svg" xmlns:xlink="http://www.w3.org/1999/xlink" width="50" zoomAndPan="magnify" viewBox="0 0 37.5 37.499999" height="50" preserveAspectRatio="xMidYMid meet" version="1.0"><defs><clipPath id="55933764a8"><path d="M 0.519531 0.652344 L 36.785156 0.652344 L 36.785156 36.175781 L 0.519531 36.175781 Z M 0.519531 0.652344 " clip-rule="nonzero"/></clipPath></defs><g clip-path="url(#55933764a8)"><path fill="#ffffff" d="M 18.65625 0.648438 C 8.664062 0.648438 0.5625 8.601562 0.5625 18.414062 C 0.5625 28.222656 8.664062 36.175781 18.65625 36.175781 C 28.648438 36.175781 36.75 28.222656 36.75 18.414062 C 36.75 8.601562 28.648438 0.648438 18.65625 0.648438 Z M 18.65625 33.359375 C 10.25 33.359375 3.433594 26.667969 3.433594 18.414062 C 3.433594 10.160156 10.25 3.46875 18.65625 3.46875 C 27.066406 3.46875 33.878906 10.160156 33.878906 18.414062 C 33.878906 26.667969 27.066406 33.359375 18.65625 33.359375 Z M 18.65625 33.359375 " fill-opacity="1" fill-rule="nonzero"/></g><path fill="#ffffff" d="M 29.996094 18.847656 L 30.003906 18.839844 C 30.238281 18.597656 30.242188 18.21875 30 17.984375 L 21.121094 9.265625 C 21 9.148438 20.84375 9.085938 20.683594 9.085938 C 20.527344 9.085938 20.367188 9.148438 20.25 9.265625 L 20.238281 9.277344 C 20.121094 9.390625 20.058594 9.542969 20.058594 9.707031 L 20.058594 12.117188 C 20.058594 12.277344 20.121094 12.433594 20.238281 12.542969 L 26.214844 18.414062 L 20.238281 24.28125 C 20.121094 24.394531 20.058594 24.546875 20.058594 24.707031 L 20.058594 27.121094 C 20.058594 27.28125 20.121094 27.4375 20.238281 27.546875 L 20.25 27.558594 C 20.363281 27.671875 20.519531 27.738281 20.683594 27.738281 C 20.847656 27.738281 21.003906 27.671875 21.121094 27.558594 Z M 29.996094 18.847656 " fill-opacity="1" fill-rule="nonzero"/><path fill="#ffffff" d="M 7.53125 18.847656 L 7.527344 18.839844 C 7.289062 18.597656 7.289062 18.21875 7.527344 17.984375 L 16.40625 9.265625 C 16.527344 9.148438 16.6875 9.085938 16.84375 9.085938 C 17 9.085938 17.15625 9.148438 17.277344 9.265625 L 17.289062 9.277344 C 17.40625 9.390625 17.472656 9.542969 17.472656 9.707031 L 17.472656 12.117188 C 17.472656 12.277344 17.40625 12.433594 17.289062 12.542969 L 11.3125 18.414062 L 17.289062 24.28125 C 17.40625 24.394531 17.472656 24.546875 17.472656 24.707031 L 17.472656 27.121094 C 17.472656 27.28125 17.40625 27.4375 17.289062 27.546875 L 17.277344 27.558594 C 17.164062 27.671875 17.007812 27.738281 16.84375 27.738281 C 16.679688 27.738281 16.523438 27.671875 16.40625 27.558594 Z M 7.53125 18.847656 " fill-opacity="1" fill-rule="nonzero"/></svg>