<svg xmlns="http://www.w3.org/2000/svg" xmlns:xlink="http://www.w3.org/1999/xlink" width="240" zoomAndPan="magnify" viewBox="0 0 180 44.999999" height="60" preserveAspectRatio="xMidYMid meet" version="1.0"><defs><g/></defs><g fill="#ffffff" fill-opacity="1"><g transform="translate(57.574432, 22.316607)"><g><path d="M 14.875 -9.765625 C 14.875 -8.898438 14.640625 -8.117188 14.171875 -7.421875 C 13.710938 -6.734375 13.039062 -6.222656 12.15625 -5.890625 L 15.296875 0 L 10.21875 0 L 7.71875 -5.140625 L 6.03125 -5.140625 L 6.03125 0 L 1.515625 0 L 1.515625 -14.078125 L 10.125 -14.078125 C 11.132812 -14.078125 12 -13.882812 12.71875 -13.5 C 13.4375 -13.113281 13.972656 -12.585938 14.328125 -11.921875 C 14.691406 -11.265625 14.875 -10.546875 14.875 -9.765625 Z M 10.28125 -9.578125 C 10.28125 -9.941406 10.15625 -10.25 9.90625 -10.5 C 9.65625 -10.75 9.351562 -10.875 9 -10.875 L 6.03125 -10.875 L 6.03125 -8.265625 L 9 -8.265625 C 9.351562 -8.265625 9.65625 -8.390625 9.90625 -8.640625 C 10.15625 -8.898438 10.28125 -9.210938 10.28125 -9.578125 Z M 10.28125 -9.578125 "/></g></g></g><g fill="#ffffff" fill-opacity="1"><g transform="translate(73.498654, 22.316607)"><g><path d="M 6.8125 -11.046875 C 8.789062 -11.046875 10.300781 -10.582031 11.34375 -9.65625 C 12.394531 -8.726562 12.921875 -7.3125 12.921875 -5.40625 L 12.921875 -4.703125 L 4.8125 -4.703125 C 4.8125 -3.929688 4.984375 -3.347656 5.328125 -2.953125 C 5.679688 -2.554688 6.234375 -2.359375 6.984375 -2.359375 C 7.660156 -2.359375 8.160156 -2.5 8.484375 -2.78125 C 8.804688 -3.070312 8.96875 -3.457031 8.96875 -3.9375 L 12.921875 -3.9375 C 12.921875 -2.625 12.421875 -1.597656 11.421875 -0.859375 C 10.421875 -0.117188 8.96875 0.25 7.0625 0.25 C 5.050781 0.25 3.492188 -0.21875 2.390625 -1.15625 C 1.285156 -2.09375 0.734375 -3.507812 0.734375 -5.40625 C 0.734375 -7.257812 1.269531 -8.660156 2.34375 -9.609375 C 3.425781 -10.566406 4.914062 -11.046875 6.8125 -11.046875 Z M 6.984375 -8.453125 C 5.703125 -8.453125 4.984375 -7.84375 4.828125 -6.625 L 8.796875 -6.625 C 8.796875 -7.1875 8.632812 -7.628906 8.3125 -7.953125 C 8 -8.285156 7.554688 -8.453125 6.984375 -8.453125 Z M 6.984375 -8.453125 "/></g></g></g><g fill="#ffffff" fill-opacity="1"><g transform="translate(87.150911, 22.316607)"><g><path d="M 6.578125 -11.046875 C 8.222656 -11.046875 9.5625 -10.769531 10.59375 -10.21875 C 11.632812 -9.664062 12.15625 -8.769531 12.15625 -7.53125 L 12.15625 -3.3125 C 12.15625 -3.082031 12.207031 -2.890625 12.3125 -2.734375 C 12.425781 -2.585938 12.59375 -2.515625 12.8125 -2.515625 L 13.546875 -2.515625 L 13.546875 -0.15625 C 13.503906 -0.132812 13.398438 -0.09375 13.234375 -0.03125 C 13.066406 0.03125 12.820312 0.09375 12.5 0.15625 C 12.1875 0.21875 11.828125 0.25 11.421875 0.25 C 10.628906 0.25 9.976562 0.128906 9.46875 -0.109375 C 8.957031 -0.347656 8.601562 -0.679688 8.40625 -1.109375 C 7.894531 -0.691406 7.316406 -0.359375 6.671875 -0.109375 C 6.023438 0.128906 5.273438 0.25 4.421875 0.25 C 1.878906 0.25 0.609375 -0.757812 0.609375 -2.78125 C 0.609375 -3.832031 0.890625 -4.632812 1.453125 -5.1875 C 2.023438 -5.738281 2.84375 -6.113281 3.90625 -6.3125 C 4.96875 -6.519531 6.359375 -6.625 8.078125 -6.625 L 8.078125 -7.15625 C 8.078125 -7.582031 7.929688 -7.90625 7.640625 -8.125 C 7.347656 -8.34375 6.972656 -8.453125 6.515625 -8.453125 C 6.085938 -8.453125 5.71875 -8.375 5.40625 -8.21875 C 5.101562 -8.070312 4.953125 -7.835938 4.953125 -7.515625 L 4.953125 -7.4375 L 0.9375 -7.4375 C 0.925781 -7.5 0.921875 -7.59375 0.921875 -7.71875 C 0.921875 -8.738281 1.40625 -9.546875 2.375 -10.140625 C 3.351562 -10.742188 4.753906 -11.046875 6.578125 -11.046875 Z M 8.078125 -4.703125 C 6.921875 -4.703125 6.066406 -4.578125 5.515625 -4.328125 C 4.960938 -4.078125 4.6875 -3.738281 4.6875 -3.3125 C 4.6875 -2.632812 5.148438 -2.296875 6.078125 -2.296875 C 6.609375 -2.296875 7.070312 -2.4375 7.46875 -2.71875 C 7.875 -3.007812 8.078125 -3.363281 8.078125 -3.78125 Z M 8.078125 -4.703125 "/></g></g></g><g fill="#ffffff" fill-opacity="1"><g transform="translate(100.803168, 22.316607)"><g><path d="M 1.375 0 L 1.375 -14.84375 L 5.4375 -14.84375 L 5.4375 0 Z M 1.375 0 "/></g></g></g><g fill="#ffffff" fill-opacity="1"><g transform="translate(107.619059, 22.316607)"><g><path d="M 9.625 -10.484375 L 9.625 0 L 5.09375 0 L 5.09375 -10.484375 L 0.46875 -10.484375 L 0.46875 -14.078125 L 14.21875 -14.078125 L 14.21875 -10.484375 Z M 9.625 -10.484375 "/></g></g></g><g fill="#ffffff" fill-opacity="1"><g transform="translate(122.397062, 22.316607)"><g><path d="M 1.375 -12.078125 L 1.375 -14.84375 L 5.4375 -14.84375 L 5.4375 -12.078125 Z M 1.375 0 L 1.375 -10.8125 L 5.4375 -10.8125 L 5.4375 0 Z M 1.375 0 "/></g></g></g><g fill="#ffffff" fill-opacity="1"><g transform="translate(129.212953, 22.316607)"><g><path d="M 15.578125 -11.046875 C 16.804688 -11.046875 17.726562 -10.691406 18.34375 -9.984375 C 18.957031 -9.285156 19.265625 -8.289062 19.265625 -7 L 19.265625 0 L 15.1875 0 L 15.1875 -6.515625 C 15.1875 -6.972656 15.070312 -7.34375 14.84375 -7.625 C 14.625 -7.90625 14.304688 -8.046875 13.890625 -8.046875 C 13.421875 -8.046875 13.035156 -7.878906 12.734375 -7.546875 C 12.429688 -7.222656 12.28125 -6.820312 12.28125 -6.34375 L 12.28125 0 L 8.203125 0 L 8.203125 -6.515625 C 8.203125 -6.972656 8.085938 -7.34375 7.859375 -7.625 C 7.640625 -7.90625 7.328125 -8.046875 6.921875 -8.046875 C 6.441406 -8.046875 6.050781 -7.878906 5.75 -7.546875 C 5.445312 -7.222656 5.296875 -6.820312 5.296875 -6.34375 L 5.296875 0 L 1.234375 0 L 1.234375 -10.8125 L 4.5625 -10.8125 L 4.828125 -9.1875 C 5.234375 -9.757812 5.773438 -10.210938 6.453125 -10.546875 C 7.128906 -10.878906 7.84375 -11.046875 8.59375 -11.046875 C 10.21875 -11.046875 11.3125 -10.425781 11.875 -9.1875 C 12.289062 -9.757812 12.828125 -10.210938 13.484375 -10.546875 C 14.148438 -10.878906 14.847656 -11.046875 15.578125 -11.046875 Z M 15.578125 -11.046875 "/></g></g></g><g fill="#ffffff" fill-opacity="1"><g transform="translate(149.681101, 22.316607)"><g><path d="M 6.8125 -11.046875 C 8.789062 -11.046875 10.300781 -10.582031 11.34375 -9.65625 C 12.394531 -8.726562 12.921875 -7.3125 12.921875 -5.40625 L 12.921875 -4.703125 L 4.8125 -4.703125 C 4.8125 -3.929688 4.984375 -3.347656 5.328125 -2.953125 C 5.679688 -2.554688 6.234375 -2.359375 6.984375 -2.359375 C 7.660156 -2.359375 8.160156 -2.5 8.484375 -2.78125 C 8.804688 -3.070312 8.96875 -3.457031 8.96875 -3.9375 L 12.921875 -3.9375 C 12.921875 -2.625 12.421875 -1.597656 11.421875 -0.859375 C 10.421875 -0.117188 8.96875 0.25 7.0625 0.25 C 5.050781 0.25 3.492188 -0.21875 2.390625 -1.15625 C 1.285156 -2.09375 0.734375 -3.507812 0.734375 -5.40625 C 0.734375 -7.257812 1.269531 -8.660156 2.34375 -9.609375 C 3.425781 -10.566406 4.914062 -11.046875 6.8125 -11.046875 Z M 6.984375 -8.453125 C 5.703125 -8.453125 4.984375 -7.84375 4.828125 -6.625 L 8.796875 -6.625 C 8.796875 -7.1875 8.632812 -7.628906 8.3125 -7.953125 C 8 -8.285156 7.554688 -8.453125 6.984375 -8.453125 Z M 6.984375 -8.453125 "/></g></g></g><g fill="#ffffff" fill-opacity="1"><g transform="translate(73.417254, 36.92166)"><g><path d="M 5.515625 -6.25 C 5.671875 -6.164062 5.75 -6.039062 5.75 -5.875 C 5.75 -5.757812 5.710938 -5.65625 5.640625 -5.5625 C 5.554688 -5.457031 5.453125 -5.40625 5.328125 -5.40625 C 5.234375 -5.40625 5.144531 -5.425781 5.0625 -5.46875 C 4.675781 -5.6875 4.253906 -5.796875 3.796875 -5.796875 C 3.316406 -5.796875 2.894531 -5.691406 2.53125 -5.484375 C 2.164062 -5.273438 1.882812 -4.984375 1.6875 -4.609375 C 1.488281 -4.234375 1.390625 -3.800781 1.390625 -3.3125 C 1.390625 -2.789062 1.492188 -2.335938 1.703125 -1.953125 C 1.910156 -1.578125 2.195312 -1.289062 2.5625 -1.09375 C 2.925781 -0.894531 3.335938 -0.796875 3.796875 -0.796875 C 4.265625 -0.796875 4.6875 -0.910156 5.0625 -1.140625 C 5.132812 -1.171875 5.21875 -1.1875 5.3125 -1.1875 C 5.445312 -1.1875 5.554688 -1.132812 5.640625 -1.03125 C 5.710938 -0.9375 5.75 -0.835938 5.75 -0.734375 C 5.75 -0.648438 5.726562 -0.578125 5.6875 -0.515625 C 5.65625 -0.453125 5.601562 -0.398438 5.53125 -0.359375 C 5.28125 -0.222656 5 -0.113281 4.6875 -0.03125 C 4.382812 0.0507812 4.085938 0.09375 3.796875 0.09375 C 3.179688 0.09375 2.613281 -0.0390625 2.09375 -0.3125 C 1.582031 -0.582031 1.171875 -0.976562 0.859375 -1.5 C 0.554688 -2.019531 0.40625 -2.625 0.40625 -3.3125 C 0.40625 -3.957031 0.550781 -4.535156 0.84375 -5.046875 C 1.144531 -5.566406 1.550781 -5.972656 2.0625 -6.265625 C 2.570312 -6.554688 3.148438 -6.703125 3.796875 -6.703125 C 4.410156 -6.703125 4.984375 -6.550781 5.515625 -6.25 Z M 5.515625 -6.25 "/></g></g></g><g fill="#ffffff" fill-opacity="1"><g transform="translate(87.058407, 36.92166)"><g><path d="M 6.8125 -3.3125 C 6.8125 -2.675781 6.675781 -2.097656 6.40625 -1.578125 C 6.132812 -1.066406 5.753906 -0.660156 5.265625 -0.359375 C 4.773438 -0.0546875 4.222656 0.09375 3.609375 0.09375 C 2.992188 0.09375 2.441406 -0.0546875 1.953125 -0.359375 C 1.472656 -0.660156 1.09375 -1.066406 0.8125 -1.578125 C 0.539062 -2.097656 0.40625 -2.675781 0.40625 -3.3125 C 0.40625 -3.957031 0.539062 -4.535156 0.8125 -5.046875 C 1.09375 -5.566406 1.472656 -5.976562 1.953125 -6.28125 C 2.441406 -6.582031 2.992188 -6.734375 3.609375 -6.734375 C 4.222656 -6.734375 4.773438 -6.582031 5.265625 -6.28125 C 5.753906 -5.976562 6.132812 -5.566406 6.40625 -5.046875 C 6.675781 -4.535156 6.8125 -3.957031 6.8125 -3.3125 Z M 5.84375 -3.3125 C 5.84375 -3.789062 5.742188 -4.21875 5.546875 -4.59375 C 5.359375 -4.976562 5.097656 -5.28125 4.765625 -5.5 C 4.429688 -5.71875 4.046875 -5.828125 3.609375 -5.828125 C 3.179688 -5.828125 2.796875 -5.71875 2.453125 -5.5 C 2.117188 -5.289062 1.859375 -4.992188 1.671875 -4.609375 C 1.484375 -4.234375 1.390625 -3.800781 1.390625 -3.3125 C 1.390625 -2.84375 1.484375 -2.414062 1.671875 -2.03125 C 1.859375 -1.644531 2.117188 -1.34375 2.453125 -1.125 C 2.796875 -0.914062 3.179688 -0.8125 3.609375 -0.8125 C 4.046875 -0.8125 4.429688 -0.914062 4.765625 -1.125 C 5.097656 -1.34375 5.359375 -1.644531 5.546875 -2.03125 C 5.742188 -2.414062 5.84375 -2.84375 5.84375 -3.3125 Z M 5.84375 -3.3125 "/></g></g></g><g fill="#ffffff" fill-opacity="1"><g transform="translate(101.875716, 36.92166)"><g><path d="M 3.578125 -6.640625 C 4.171875 -6.640625 4.675781 -6.488281 5.09375 -6.1875 C 5.519531 -5.894531 5.84375 -5.492188 6.0625 -4.984375 C 6.28125 -4.484375 6.390625 -3.925781 6.390625 -3.3125 C 6.390625 -2.695312 6.28125 -2.132812 6.0625 -1.625 C 5.84375 -1.125 5.519531 -0.726562 5.09375 -0.4375 C 4.675781 -0.144531 4.171875 0 3.578125 0 L 1.25 0 C 1.113281 0 1 -0.0390625 0.90625 -0.125 C 0.820312 -0.21875 0.78125 -0.328125 0.78125 -0.453125 L 0.78125 -6.1875 C 0.78125 -6.3125 0.820312 -6.414062 0.90625 -6.5 C 1 -6.59375 1.113281 -6.640625 1.25 -6.640625 Z M 3.484375 -0.875 C 4.128906 -0.875 4.613281 -1.101562 4.9375 -1.5625 C 5.257812 -2.019531 5.421875 -2.601562 5.421875 -3.3125 C 5.421875 -4.019531 5.253906 -4.601562 4.921875 -5.0625 C 4.597656 -5.53125 4.117188 -5.765625 3.484375 -5.765625 L 1.71875 -5.765625 L 1.71875 -0.875 Z M 3.484375 -0.875 "/></g></g></g><g fill="#ffffff" fill-opacity="1"><g transform="translate(116.266193, 36.92166)"><g><path d="M 1.71875 -0.46875 C 1.71875 -0.332031 1.671875 -0.21875 1.578125 -0.125 C 1.484375 -0.0390625 1.375 0 1.25 0 C 1.113281 0 1 -0.0390625 0.90625 -0.125 C 0.820312 -0.21875 0.78125 -0.332031 0.78125 -0.46875 L 0.78125 -6.1875 C 0.78125 -6.3125 0.820312 -6.414062 0.90625 -6.5 C 1 -6.59375 1.117188 -6.640625 1.265625 -6.640625 C 1.390625 -6.640625 1.492188 -6.59375 1.578125 -6.5 C 1.671875 -6.414062 1.71875 -6.3125 1.71875 -6.1875 Z M 1.71875 -0.46875 "/></g></g></g><g fill="#ffffff" fill-opacity="1"><g transform="translate(126.369403, 36.92166)"><g><path d="M 5.75 -6.640625 C 5.863281 -6.640625 5.957031 -6.597656 6.03125 -6.515625 C 6.113281 -6.441406 6.15625 -6.34375 6.15625 -6.21875 L 6.15625 -0.46875 C 6.15625 -0.332031 6.113281 -0.21875 6.03125 -0.125 C 5.945312 -0.0390625 5.835938 0 5.703125 0 C 5.628906 0 5.554688 -0.0078125 5.484375 -0.03125 C 5.421875 -0.0507812 5.375 -0.0820312 5.34375 -0.125 L 1.609375 -4.984375 L 1.609375 -0.421875 C 1.609375 -0.296875 1.566406 -0.191406 1.484375 -0.109375 C 1.410156 -0.0351562 1.3125 0 1.1875 0 C 1.070312 0 0.972656 -0.0351562 0.890625 -0.109375 C 0.816406 -0.191406 0.78125 -0.296875 0.78125 -0.421875 L 0.78125 -6.1875 C 0.78125 -6.320312 0.820312 -6.429688 0.90625 -6.515625 C 1 -6.597656 1.109375 -6.640625 1.234375 -6.640625 C 1.304688 -6.640625 1.378906 -6.625 1.453125 -6.59375 C 1.523438 -6.5625 1.578125 -6.523438 1.609375 -6.484375 L 5.328125 -1.609375 L 5.328125 -6.21875 C 5.328125 -6.34375 5.363281 -6.441406 5.4375 -6.515625 C 5.519531 -6.597656 5.625 -6.640625 5.75 -6.640625 Z M 5.75 -6.640625 "/></g></g></g><g fill="#ffffff" fill-opacity="1"><g transform="translate(140.902156, 36.92166)"><g><path d="M 5.65625 -3.484375 C 5.789062 -3.484375 5.898438 -3.4375 5.984375 -3.34375 C 6.066406 -3.257812 6.109375 -3.15625 6.109375 -3.03125 L 6.109375 -0.90625 C 6.109375 -0.726562 6.03125 -0.59375 5.875 -0.5 C 5.582031 -0.3125 5.265625 -0.164062 4.921875 -0.0625 C 4.578125 0.0390625 4.21875 0.09375 3.84375 0.09375 C 3.21875 0.09375 2.640625 -0.0546875 2.109375 -0.359375 C 1.578125 -0.660156 1.160156 -1.070312 0.859375 -1.59375 C 0.554688 -2.113281 0.40625 -2.6875 0.40625 -3.3125 C 0.40625 -3.945312 0.554688 -4.523438 0.859375 -5.046875 C 1.160156 -5.566406 1.578125 -5.976562 2.109375 -6.28125 C 2.640625 -6.582031 3.21875 -6.734375 3.84375 -6.734375 C 4.164062 -6.734375 4.472656 -6.695312 4.765625 -6.625 C 5.054688 -6.5625 5.320312 -6.457031 5.5625 -6.3125 C 5.632812 -6.269531 5.6875 -6.21875 5.71875 -6.15625 C 5.757812 -6.09375 5.78125 -6.023438 5.78125 -5.953125 C 5.78125 -5.816406 5.738281 -5.703125 5.65625 -5.609375 C 5.570312 -5.523438 5.46875 -5.484375 5.34375 -5.484375 C 5.25 -5.484375 5.171875 -5.503906 5.109375 -5.546875 C 4.691406 -5.734375 4.269531 -5.828125 3.84375 -5.828125 C 3.394531 -5.828125 2.984375 -5.71875 2.609375 -5.5 C 2.234375 -5.28125 1.9375 -4.976562 1.71875 -4.59375 C 1.5 -4.207031 1.390625 -3.78125 1.390625 -3.3125 C 1.390625 -2.851562 1.5 -2.429688 1.71875 -2.046875 C 1.9375 -1.671875 2.234375 -1.367188 2.609375 -1.140625 C 2.984375 -0.921875 3.394531 -0.8125 3.84375 -0.8125 C 4.0625 -0.8125 4.289062 -0.832031 4.53125 -0.875 C 4.769531 -0.925781 4.972656 -0.992188 5.140625 -1.078125 L 5.140625 -2.59375 L 4 -2.59375 C 3.863281 -2.59375 3.75 -2.632812 3.65625 -2.71875 C 3.570312 -2.800781 3.53125 -2.90625 3.53125 -3.03125 C 3.53125 -3.164062 3.570312 -3.273438 3.65625 -3.359375 C 3.75 -3.441406 3.863281 -3.484375 4 -3.484375 Z M 5.65625 -3.484375 "/></g></g></g><path fill="#ffffff" d="M 25.503906 0 C 13.101562 0 3.046875 10.074219 3.046875 22.496094 C 3.046875 34.925781 13.101562 45 25.503906 45 C 37.902344 45 47.957031 34.925781 47.957031 22.496094 C 47.957031 10.074219 37.902344 0 25.503906 0 Z M 25.503906 41.429688 C 15.070312 41.429688 6.609375 32.957031 6.609375 22.496094 C 6.609375 12.042969 15.070312 3.566406 25.503906 3.566406 C 35.9375 3.566406 44.398438 12.042969 44.398438 22.496094 C 44.398438 32.957031 35.9375 41.429688 25.503906 41.429688 Z M 25.503906 41.429688 " fill-opacity="1" fill-rule="nonzero"/><path fill="#ffffff" d="M 39.574219 23.050781 L 39.585938 23.042969 L 39.585938 23.039062 C 39.878906 22.734375 39.878906 22.253906 39.582031 21.957031 L 28.558594 10.914062 C 28.414062 10.761719 28.214844 10.6875 28.023438 10.6875 C 27.824219 10.6875 27.628906 10.761719 27.480469 10.914062 L 27.46875 10.925781 C 27.324219 11.070312 27.242188 11.265625 27.242188 11.46875 L 27.242188 14.523438 C 27.242188 14.726562 27.324219 14.921875 27.46875 15.066406 L 34.882812 22.496094 L 27.46875 29.929688 C 27.324219 30.074219 27.242188 30.269531 27.242188 30.472656 L 27.242188 33.53125 C 27.242188 33.730469 27.324219 33.929688 27.46875 34.070312 L 27.480469 34.085938 C 27.621094 34.226562 27.816406 34.308594 28.023438 34.308594 C 28.222656 34.308594 28.417969 34.226562 28.558594 34.085938 Z M 39.574219 23.050781 " fill-opacity="1" fill-rule="nonzero"/><path fill="#ffffff" d="M 11.699219 23.050781 L 11.691406 23.042969 L 11.691406 23.039062 C 11.394531 22.734375 11.394531 22.253906 11.691406 21.957031 L 22.710938 10.914062 C 22.863281 10.761719 23.058594 10.6875 23.253906 10.6875 C 23.449219 10.6875 23.644531 10.761719 23.792969 10.914062 L 23.808594 10.925781 C 23.953125 11.070312 24.035156 11.265625 24.035156 11.46875 L 24.035156 14.523438 C 24.035156 14.726562 23.953125 14.921875 23.808594 15.066406 L 16.390625 22.496094 L 23.808594 29.929688 C 23.953125 30.074219 24.035156 30.269531 24.035156 30.472656 L 24.035156 33.53125 C 24.035156 33.730469 23.953125 33.929688 23.808594 34.070312 L 23.792969 34.085938 C 23.652344 34.226562 23.457031 34.308594 23.253906 34.308594 C 23.050781 34.308594 22.855469 34.226562 22.710938 34.085938 Z M 11.699219 23.050781 " fill-opacity="1" fill-rule="nonzero"/></svg>